<svg width="500" height="400" viewBox="0 0 500 400" xmlns="http://www.w3.org/2000/svg">
  <defs>
    <linearGradient id="grad4" x1="0%" y1="0%" x2="100%" y2="100%">
      <stop offset="0%" style="stop-color:#8b5cf6;stop-opacity:1" />
      <stop offset="100%" style="stop-color:#6366f1;stop-opacity:1" />
    </linearGradient>
  </defs>
  <rect width="500" height="400" fill="url(#grad4)"/>
  <g opacity="0.1">
    <circle cx="60" cy="340" r="35" fill="white"/>
    <circle cx="440" cy="60" r="40" fill="white"/>
  </g>
  <rect x="100" y="100" width="300" height="200" rx="15" fill="white" opacity="0.9"/>
  <rect x="120" y="120" width="260" height="15" rx="7" fill="#8b5cf6" opacity="0.3"/>
  <rect x="120" y="145" width="80" height="50" rx="8" fill="#6366f1" opacity="0.3"/>
  <rect x="210" y="145" width="80" height="50" rx="8" fill="#6366f1" opacity="0.3"/>
  <rect x="300" y="145" width="80" height="50" rx="8" fill="#6366f1" opacity="0.3"/>
  <rect x="120" y="210" width="260" height="8" rx="4" fill="#8b5cf6" opacity="0.2"/>
  <rect x="120" y="225" width="200" height="8" rx="4" fill="#8b5cf6" opacity="0.2"/>
  <rect x="120" y="240" width="150" height="8" rx="4" fill="#8b5cf6" opacity="0.2"/>
  <path d="M 120 270 L 180 250 L 240 260 L 300 235 L 360 245" stroke="#6366f1" stroke-width="3" fill="none" opacity="0.6"/>
  <text x="250" y="350" font-family="Arial, sans-serif" font-size="22" font-weight="bold" fill="white" text-anchor="middle">Analytics Dashboard</text>
</svg>