<svg width="500" height="400" viewBox="0 0 500 400" xmlns="http://www.w3.org/2000/svg">
  <defs>
    <linearGradient id="grad6" x1="0%" y1="0%" x2="100%" y2="100%">
      <stop offset="0%" style="stop-color:#8b5cf6;stop-opacity:1" />
      <stop offset="100%" style="stop-color:#6366f1;stop-opacity:1" />
    </linearGradient>
  </defs>
  <rect width="500" height="400" fill="url(#grad6)"/>
  <g opacity="0.1">
    <circle cx="70" cy="330" r="40" fill="white"/>
    <circle cx="430" cy="70" r="45" fill="white"/>
    <circle cx="250" cy="80" r="25" fill="white"/>
  </g>
  <rect x="120" y="130" width="110" height="110" rx="15" fill="white" opacity="0.9"/>
  <circle cx="175" cy="165" r="15" fill="#8b5cf6" opacity="0.5"/>
  <rect x="150" y="190" width="50" height="8" rx="4" fill="#6366f1" opacity="0.3"/>
  <rect x="150" y="205" width="35" height="8" rx="4" fill="#6366f1" opacity="0.3"/>
  <rect x="270" y="130" width="110" height="110" rx="15" fill="white" opacity="0.9"/>
  <path d="M 325 155 L 335 175 L 315 175 Z" fill="#6366f1" opacity="0.5"/>
  <rect x="300" y="190" width="50" height="8" rx="4" fill="#8b5cf6" opacity="0.3"/>
  <rect x="300" y="205" width="40" height="8" rx="4" fill="#8b5cf6" opacity="0.3"/>
  <rect x="195" y="260" width="110" height="60" rx="12" fill="white" opacity="0.9"/>
  <circle cx="235" cy="280" r="8" fill="#6366f1"/>
  <circle cx="255" cy="280" r="8" fill="#6366f1"/>
  <rect x="215" y="300" width="40" height="8" rx="4" fill="#8b5cf6" opacity="0.3"/>
  <text x="250" y="360" font-family="Arial, sans-serif" font-size="20" font-weight="bold" fill="white" text-anchor="middle">Social Media Campaign</text>
</svg>