<svg width="500" height="400" viewBox="0 0 500 400" xmlns="http://www.w3.org/2000/svg">
  <defs>
    <linearGradient id="grad5" x1="0%" y1="0%" x2="100%" y2="100%">
      <stop offset="0%" style="stop-color:#6366f1;stop-opacity:1" />
      <stop offset="100%" style="stop-color:#8b5cf6;stop-opacity:1" />
    </linearGradient>
  </defs>
  <rect width="500" height="400" fill="url(#grad5)"/>
  <g opacity="0.1">
    <circle cx="90" cy="90" r="45" fill="white"/>
    <circle cx="410" cy="310" r="50" fill="white"/>
  </g>
  <rect x="80" y="80" width="340" height="240" rx="15" fill="white" opacity="0.9"/>
  <rect x="100" y="100" width="300" height="30" rx="10" fill="#6366f1" opacity="0.3"/>
  <circle cx="120" cy="115" r="8" fill="#8b5cf6"/>
  <circle cx="140" cy="115" r="8" fill="#8b5cf6"/>
  <circle cx="160" cy="115" r="8" fill="#8b5cf6"/>
  <rect x="100" y="145" width="130" height="150" rx="10" fill="#6366f1" opacity="0.2"/>
  <rect x="245" y="145" width="155" height="30" rx="8" fill="#8b5cf6" opacity="0.3"/>
  <rect x="245" y="185" width="155" height="10" rx="5" fill="#6366f1" opacity="0.2"/>
  <rect x="245" y="205" width="155" height="10" rx="5" fill="#6366f1" opacity="0.2"/>
  <rect x="245" y="225" width="100" height="10" rx="5" fill="#6366f1" opacity="0.2"/>
  <rect x="245" y="250" width="80" height="25" rx="8" fill="#8b5cf6" opacity="0.4"/>
  <text x="250" y="355" font-family="Arial, sans-serif" font-size="22" font-weight="bold" fill="white" text-anchor="middle">Corporate Website</text>
</svg>